<svg width="24" height="24" viewBox="0 0 24 24" fill="none" xmlns="http://www.w3.org/2000/svg">
<path d="M3 5V3.97557C2.43422 3.97557 1.97557 4.43422 1.97557 5H3ZM21 5H22.0244C22.0244 4.43422 21.5658 3.97557 21 3.97557V5ZM3 9H1.97557C1.97557 9.56578 2.43422 10.0244 3 10.0244L3 9ZM3 15V13.9756C2.43422 13.9756 1.97557 14.4342 1.97557 15H3ZM3 19H1.97557C1.97557 19.5658 2.43422 20.0244 3 20.0244L3 19ZM21 19V20.0244C21.5658 20.0244 22.0244 19.5658 22.0244 19H21ZM21 15H22.0244C22.0244 14.4342 21.5658 13.9756 21 13.9756V15ZM21 9V10.0244C21.5658 10.0244 22.0244 9.56578 22.0244 9H21ZM3 6.02443H21V3.97557H3V6.02443ZM4.02443 9V5H1.97557V9H4.02443ZM7.02443 12C7.02443 9.77737 5.22263 7.97557 3 7.97557V10.0244C4.09108 10.0244 4.97557 10.9089 4.97557 12H7.02443ZM3 16.0244C5.22263 16.0244 7.02443 14.2226 7.02443 12H4.97557C4.97557 13.0911 4.09108 13.9756 3 13.9756V16.0244ZM4.02443 19V15H1.97557V19H4.02443ZM21 17.9756H3V20.0244H21V17.9756ZM19.9756 15V19H22.0244V15H19.9756ZM16.9756 12C16.9756 14.2226 18.7774 16.0244 21 16.0244V13.9756C19.9089 13.9756 19.0244 13.0911 19.0244 12H16.9756ZM21 7.97557C18.7774 7.97557 16.9756 9.77737 16.9756 12H19.0244C19.0244 10.9089 19.9089 10.0244 21 10.0244V7.97557ZM19.9756 5V9H22.0244V5H19.9756Z" fill="white"/>
<path d="M12 8L13.2226 10.3172L15.8042 10.7639L13.9782 12.6428L14.3511 15.2361L12 14.08L9.64886 15.2361L10.0218 12.6428L8.19577 10.7639L10.7774 10.3172L12 8Z" fill="white"/>
</svg>
