<svg width="255" height="27" viewBox="0 0 255 27" fill="none" xmlns="http://www.w3.org/2000/svg">
<path d="M20.243 1.18316C20.1731 0.819846 19.9728 0.512429 19.6794 0.312142C19.358 0.0606196 18.9528 -0.0465104 18.5569 0.0186992C18.1749 0.0792509 17.8396 0.298169 17.6626 0.577639L10.1029 10.7643L2.59914 0.614901C2.3942 0.298169 2.05883 0.0792509 1.67689 0.0186992C1.27166 -0.0465104 0.852456 0.0699353 0.563671 0.307485C-0.0325311 0.726689 -0.186239 1.63962 0.256254 2.33364L8.7009 13.7034V24.258C8.7009 25.0359 9.35765 25.6927 10.1355 25.6927C10.9134 25.6927 11.5701 25.0638 11.5701 24.258V13.6382L19.9822 2.32898C20.2197 1.99828 20.3175 1.57907 20.2383 1.18316H20.243Z" fill="black"/>
<path d="M24.8169 7.59229C20.0752 7.59229 16.2139 11.6539 16.2139 16.6424C16.2139 21.631 20.0752 25.6926 24.8169 25.6926C29.5585 25.6926 33.4199 21.631 33.4199 16.6424C33.4199 11.6539 29.5585 7.59229 24.8169 7.59229ZM30.5553 16.6424C30.5553 20.052 27.9795 22.828 24.8169 22.828C21.6542 22.828 19.0784 20.052 19.0784 16.6424C19.0784 13.2329 21.7054 10.4242 24.8169 10.4242C27.9283 10.4242 30.5553 13.2748 30.5553 16.6424Z" fill="black"/>
<path d="M49.4291 7.55518C48.6512 7.55518 47.9945 8.21193 47.9945 8.98979V18.1937C47.9945 20.7601 45.9543 22.7956 43.3692 22.8282C40.8074 22.7956 38.7952 20.7601 38.7952 18.1937V8.98979C38.7952 8.18864 38.1664 7.55518 37.3606 7.55518C36.5548 7.55518 35.926 8.18398 35.926 8.98979V18.1937C35.926 22.3298 39.261 25.6928 43.3553 25.6928C47.4495 25.6928 50.887 22.3298 50.887 18.1937V8.98979C50.887 8.18864 50.2442 7.55518 49.4198 7.55518H49.4291Z" fill="black"/>
<path d="M66.7467 2.90647C69.057 2.90647 71.2648 3.67501 73.1233 5.11893C73.4354 5.3658 73.8406 5.47759 74.2365 5.41238C74.6045 5.35648 74.9259 5.1562 75.1448 4.8581C75.373 4.60657 75.4895 4.26189 75.4708 3.89858C75.4475 3.47006 75.2472 3.06949 74.9026 2.79002C72.583 0.992098 69.6811 0.00463867 66.7467 0.00463867C59.3734 0.0419013 53.5977 5.71048 53.5977 12.9161C53.5977 20.1218 59.4991 25.6879 66.7514 25.6879C69.7137 25.6879 72.6109 24.7144 74.8979 22.9538C75.2333 22.7069 75.4475 22.3017 75.4708 21.8685C75.4895 21.4912 75.3637 21.1326 75.1168 20.8764C74.9259 20.5922 74.6371 20.3966 74.297 20.3174C73.8965 20.2243 73.4586 20.3081 73.1 20.5503L73.0441 20.5922C71.3673 22.0129 69.1315 22.7907 66.7467 22.7907C61.0921 22.7907 56.4948 18.3611 56.4948 12.9161C56.4948 7.47114 61.0921 2.90647 66.7467 2.90647Z" fill="black"/>
<path d="M93.0822 7.5923C92.2764 7.5923 91.6476 8.22111 91.6476 9.02691V9.90724C90.0826 8.44003 88.0331 7.5923 85.9092 7.5923C81.1675 7.5923 77.3062 11.6539 77.3062 16.6425C77.3062 21.631 81.1675 25.6926 85.9092 25.6926C88.0238 25.6926 90.0733 24.8402 91.6476 23.3497V24.258C91.6476 25.0359 92.3044 25.6926 93.0822 25.6926C93.8601 25.6926 94.5168 25.0359 94.5168 24.258V9.02226C94.5168 8.22111 93.888 7.58765 93.0822 7.58765V7.5923ZM91.6476 16.6425C91.6476 20.052 89.0718 22.8281 85.9092 22.8281C82.7465 22.8281 80.1707 20.052 80.1707 16.6425C80.1707 13.2329 82.7465 10.4243 85.9092 10.4243C89.0718 10.4243 91.6476 13.2143 91.6476 16.6425Z" fill="black"/>
<path d="M116.879 7.62502C114.489 7.62502 112.244 8.78016 110.819 10.6992C109.417 8.78016 107.181 7.62502 104.783 7.62502C103.087 7.62502 101.475 8.19327 100.181 9.21334V9.02237C100.181 8.23985 99.5518 7.62502 98.746 7.62502C97.9402 7.62502 97.3486 8.25383 97.3486 9.02237V24.5655L97.3812 24.6587C97.5676 25.2176 98.0473 25.6322 98.5783 25.6881H98.8531C98.9276 25.6881 99.0674 25.6881 99.2164 25.6229C99.3608 25.5763 99.4773 25.5018 99.5471 25.4459C99.943 25.1943 100.181 24.7705 100.181 24.2954V15.0915C100.181 12.5344 102.244 10.457 104.783 10.457C107.321 10.457 109.384 12.5344 109.384 15.0915V24.2814C109.38 24.4258 109.398 24.8171 109.72 25.2223L109.799 25.3061C109.855 25.3574 110.167 25.6089 110.577 25.6741L110.814 25.6927C111.047 25.6927 111.276 25.6368 111.499 25.5251L111.541 25.5018C111.671 25.4226 112.063 25.1897 112.216 24.7239C112.282 24.5283 112.282 24.4351 112.282 24.3932V15.0869C112.282 12.5297 114.345 10.4523 116.884 10.4523C119.422 10.4523 121.453 12.4924 121.518 15.0869V24.2907C121.518 25.0639 122.147 25.6881 122.915 25.6881C123.684 25.6881 124.35 25.0593 124.35 24.2907V15.0869C124.35 10.9693 121.001 7.62036 116.884 7.62036L116.879 7.62502Z" fill="black"/>
<path fill-rule="evenodd" clip-rule="evenodd" d="M175.055 7.39189C172.386 7.39189 170.91 8.49114 170.272 9.13858V1.87237C170.272 1.43453 170.127 1.06656 169.848 0.787091C169.559 0.475017 169.177 0.31665 168.716 0.31665C168.278 0.31665 167.901 0.475017 167.593 0.782433C167.305 1.06656 167.16 1.43453 167.16 1.87237V24.0856C167.16 24.5141 167.305 24.8867 167.593 25.1988C167.836 25.441 168.124 25.5854 168.45 25.6413C168.539 25.6552 168.627 25.6646 168.721 25.6646C169.144 25.6646 169.508 25.5155 169.811 25.1988C170.043 24.9659 170.188 24.6957 170.248 24.3883C170.267 24.2858 170.276 24.1834 170.276 24.0716V15.7574C170.276 15.5431 170.332 10.4661 175.088 10.4661C178.982 10.4661 179.159 15.054 179.159 15.1006V24.0716C179.159 24.5048 179.303 24.882 179.592 25.1988C179.899 25.5062 180.281 25.6646 180.719 25.6646C181.157 25.6646 181.53 25.5062 181.809 25.1988C182.117 24.8914 182.275 24.5094 182.275 24.0716V14.6069C182.275 13.8663 182.075 7.39189 175.069 7.39189H175.055ZM145.976 4.67638C146.405 4.67638 146.782 4.54597 147.094 4.28513C147.406 3.99634 147.565 3.62837 147.565 3.18588C147.565 2.74339 147.406 2.37542 147.094 2.08663C146.787 1.8025 146.41 1.66277 145.976 1.66277H133.982C133.545 1.66277 133.167 1.82114 132.855 2.12855C132.567 2.41734 132.422 2.78065 132.422 3.21848V24.0716C132.422 24.5048 132.567 24.882 132.855 25.1988C133.163 25.5062 133.545 25.6646 133.982 25.6646H145.976C146.41 25.6646 146.787 25.5202 147.094 25.2407C147.406 24.9519 147.565 24.5839 147.565 24.1415C147.565 23.7502 147.406 23.3915 147.099 23.0841C146.792 22.7767 146.41 22.6183 145.972 22.6183H135.636V14.8491H144.453C144.882 14.8491 145.259 14.7187 145.571 14.4578C145.883 14.169 146.042 13.8011 146.042 13.3586C146.042 12.9161 145.883 12.5481 145.571 12.2593C145.264 11.9752 144.886 11.8308 144.453 11.8308H135.636V4.67638H145.972H145.976ZM157.23 7.39186C154.542 7.39186 153.061 8.50974 152.432 9.15252C152.39 8.81716 152.25 8.52837 152.022 8.30014C151.733 7.98807 151.356 7.8297 150.89 7.8297C150.452 7.8297 150.075 7.98807 149.763 8.29548C149.474 8.58427 149.33 8.94758 149.33 9.38542V24.0715C149.33 24.5047 149.474 24.882 149.763 25.1987C150.071 25.5062 150.452 25.6645 150.89 25.6645C151.328 25.6645 151.701 25.5062 151.98 25.1987C152.288 24.8913 152.446 24.5094 152.446 24.0715V15.7573C152.446 10.6943 156.107 10.2984 157.23 10.2984C161.277 10.2984 161.324 15.054 161.324 15.1006V24.0715C161.324 24.5047 161.468 24.882 161.757 25.1987C162.064 25.5062 162.446 25.6645 162.884 25.6645C163.322 25.6645 163.695 25.5062 163.974 25.1987C164.282 24.8913 164.44 24.5094 164.44 24.0715V14.6068C164.44 13.8662 164.24 7.39186 157.234 7.39186H157.23ZM206.677 9.15252C207.306 8.50974 208.787 7.39186 211.475 7.39186H211.479C218.485 7.39186 218.685 13.8662 218.685 14.6068V24.0715C218.685 24.5094 218.527 24.8913 218.219 25.1987C217.94 25.5062 217.567 25.6645 217.129 25.6645C216.691 25.6645 216.309 25.5062 216.002 25.1987C215.713 24.882 215.569 24.5047 215.569 24.0715V15.1006C215.569 15.054 215.522 10.2984 211.475 10.2984C210.352 10.2984 206.691 10.6943 206.691 15.7573V24.0715C206.691 24.5094 206.533 24.8867 206.225 25.1987C205.946 25.5062 205.573 25.6645 205.135 25.6645C204.698 25.6645 204.316 25.5062 204.008 25.1987C203.719 24.882 203.575 24.5047 203.575 24.0715V9.38542C203.575 8.94758 203.719 8.58427 204.008 8.29548C204.32 7.98807 204.698 7.8297 205.135 7.8297C205.601 7.8297 205.978 7.98807 206.267 8.30014C206.495 8.52837 206.635 8.81716 206.677 9.15252ZM198.247 8.12314C198.531 7.81573 198.908 7.65736 199.374 7.65736L199.364 7.66202C199.802 7.66202 200.17 7.82039 200.454 8.1278C200.762 8.41193 200.92 8.7799 200.92 9.21773V24.0669C200.92 24.5047 200.762 24.8867 200.454 25.1941C200.175 25.5015 199.83 25.6599 199.364 25.6599C198.899 25.6599 198.521 25.5015 198.233 25.1894C197.953 24.882 197.809 24.5047 197.809 24.0715V23.2844C197.543 23.6104 197.245 23.9272 196.91 24.2253C196.309 24.733 195.587 25.1615 194.762 25.5062C193.952 25.8322 193.067 25.9952 192.121 25.9952C190.561 25.9952 189.14 25.59 187.897 24.7842C186.658 23.9598 185.661 22.8326 184.93 21.4399C184.222 20.0472 183.863 18.4635 183.863 16.6609C183.863 14.8584 184.222 13.2514 184.93 11.882C185.661 10.4893 186.663 9.38542 187.901 8.6029C189.14 7.80175 190.538 7.39186 192.056 7.39186C193.044 7.39186 193.975 7.55489 194.828 7.87628C195.68 8.19767 196.425 8.64016 197.049 9.19444C197.329 9.43199 197.585 9.68817 197.813 9.95833V9.21308C197.813 8.7799 197.958 8.41193 198.247 8.12314ZM197.231 19.9727C197.711 18.9945 197.953 17.8813 197.953 16.6609H197.948C197.948 15.4639 197.706 14.3739 197.231 13.4191C196.775 12.4456 196.123 11.6817 195.284 11.1461C194.464 10.5871 193.486 10.303 192.434 10.303C191.381 10.303 190.421 10.5778 189.583 11.1135C188.768 11.6491 188.111 12.4037 187.636 13.3539C187.161 14.3041 186.919 15.4406 186.919 16.6609C186.919 17.8813 187.152 18.9945 187.608 19.9727C188.083 20.9182 188.74 21.6867 189.56 22.2457C190.393 22.8 191.362 23.0841 192.438 23.0841C193.514 23.0841 194.469 22.8046 195.284 22.2457C196.123 21.6867 196.779 20.9229 197.231 19.9727ZM234.503 21.4026C234.088 21.4026 233.744 21.5377 233.474 21.8078C233.287 22.0128 232.999 22.227 232.617 22.4413C232.319 22.6136 231.937 22.7627 231.485 22.8931C231.033 23.0235 230.418 23.0887 229.654 23.0887C228.485 23.0887 227.446 22.8046 226.566 22.2457C225.681 21.6821 224.978 20.9182 224.484 19.968C223.986 19.0131 223.734 17.9139 223.734 16.6982C223.734 15.4825 224 14.3833 224.517 13.4284C225.034 12.4782 225.746 11.7097 226.631 11.1461C227.535 10.5871 228.597 10.303 229.789 10.303C230.292 10.303 230.8 10.3449 231.303 10.4334C231.792 10.5173 232.165 10.6337 232.43 10.7874C232.691 10.9085 232.896 11.0483 233.045 11.2159C233.231 11.4069 233.427 11.5606 233.632 11.691C233.865 11.8215 234.158 11.8867 234.508 11.8867C234.913 11.8867 235.239 11.7236 235.486 11.3976C235.714 11.0902 235.831 10.7688 235.831 10.4288C235.831 9.82325 235.532 9.28294 234.941 8.81716C234.382 8.37467 233.623 8.02067 232.677 7.76915C231.741 7.51763 230.684 7.39186 229.524 7.39186C227.763 7.39186 226.198 7.81107 224.866 8.63551C223.538 9.45994 222.481 10.5871 221.727 11.9845C220.995 13.3818 220.623 14.9655 220.623 16.6982C220.623 18.4309 220.981 20.0286 221.689 21.4445C222.421 22.8419 223.455 23.9691 224.763 24.7935C226.072 25.5947 227.614 26.0045 229.351 26.0045C230.581 26.0045 231.69 25.8415 232.649 25.5201C233.632 25.1987 234.424 24.8028 235.006 24.337C235.616 23.848 235.928 23.3636 235.928 22.8931C235.928 22.4832 235.798 22.1292 235.542 21.8498C235.3 21.5517 234.95 21.4026 234.503 21.4026ZM254.08 15.8831C254.08 16.3023 253.922 16.661 253.609 16.9498H253.6C253.293 17.2293 252.925 17.3736 252.515 17.3736H240.502C240.582 18.3611 240.824 19.2414 241.215 19.996C241.732 20.9462 242.454 21.7101 243.362 22.2737C244.266 22.8093 245.337 23.0841 246.553 23.0841C247.317 23.0841 247.983 22.991 248.542 22.7954C249.105 22.5997 249.599 22.3575 250.009 22.0781C250.414 21.78 250.768 21.4725 251.052 21.1651C251.416 20.9136 251.737 20.7971 252.049 20.7971C252.445 20.7971 252.771 20.9322 253.013 21.2024C253.269 21.4586 253.405 21.78 253.405 22.1526C253.405 22.5997 253.2 22.9956 252.79 23.3264C252.166 24.0157 251.285 24.6585 250.191 25.2035C249.087 25.7298 247.899 25.9999 246.66 25.9999C244.834 25.9999 243.213 25.604 241.839 24.8262C240.465 24.0483 239.371 22.9677 238.593 21.6169C237.833 20.2382 237.451 18.6406 237.451 16.8613C237.451 14.8817 237.847 13.1676 238.625 11.7749C239.426 10.3543 240.474 9.26436 241.737 8.52843C243.018 7.7692 244.392 7.38726 245.817 7.38726C246.87 7.38726 247.904 7.58289 248.891 7.97415C249.879 8.3654 250.764 8.94763 251.523 9.70686C252.282 10.4381 252.897 11.3464 253.353 12.3991C253.814 13.4285 254.057 14.6022 254.08 15.8831ZM240.926 13.7405C240.828 14.0014 240.745 14.2948 240.675 14.6302V14.6395H250.833V14.5789C250.75 13.7219 250.447 12.9673 249.939 12.3525C249.441 11.7004 248.821 11.202 248.09 10.8573C246.8 10.2332 245.314 10.1633 243.87 10.6943C243.246 10.9086 242.673 11.2765 242.161 11.7889C241.667 12.2826 241.252 12.9394 240.926 13.7405Z" fill="url(#paint0_linear_174_7194)"/>
<defs>
<linearGradient id="paint0_linear_174_7194" x1="133.5" y1="16.6042" x2="151.268" y2="56.8302" gradientUnits="userSpaceOnUse">
<stop stop-color="#0EB5D9"/>
<stop offset="1" stop-color="#5DD73F"/>
</linearGradient>
</defs>
</svg>
